<svg xmlns="http://www.w3.org/2000/svg" width="301" height="300" viewBox="0 0 301 300" version="1.1"><path d="M 20.535 21.799 C 20.241 22.093, 20 80.308, 20 151.167 L 20 280 151.500 280 L 283 280 283.084 259.250 C 283.450 168.968, 283.556 23.290, 283.256 22.383 L 282.888 21.265 151.978 21.265 C 79.978 21.264, 20.829 21.505, 20.535 21.799 M 64 146.500 L 64 232 95.417 232 L 126.835 232 128.416 227.750 C 129.286 225.412, 132.400 216.975, 135.337 209 L 140.676 194.500 121.459 194.229 L 102.243 193.959 101.816 185.033 C 101.581 180.123, 101.576 174.508, 101.804 172.553 L 102.219 169 146.609 169 L 191 169 191.013 167.750 C 191.021 167.063, 191.693 158.400, 192.507 148.500 C 193.321 138.600, 193.990 129.938, 193.993 129.250 L 194 128 147.500 128 L 101 128 101 114.500 L 101 101 120.617 101 L 140.233 101 139.713 99.250 C 139.427 98.287, 136.112 89.300, 132.346 79.279 L 125.500 61.057 94.750 61.029 L 64 61 64 146.500 M 153.938 63.238 C 156.778 70.394, 169.955 99.355, 170.718 100.118 L 171.625 101.025 208.224 100.763 L 244.824 100.500 237.652 81 L 230.481 61.500 191.761 61.238 L 153.041 60.977 153.938 63.238 M 169.519 195.750 C 168.388 198.599, 157 231.266, 157 231.661 C 157 231.861, 174.151 231.906, 195.114 231.762 L 233.228 231.500 239.989 212.750 L 246.749 194 208.482 194 L 170.214 194 169.519 195.750" stroke="none" fill="#002522" fill-rule="evenodd"/><path d="M 64 146.500 L 64 232 95.250 231.995 L 126.500 231.990 132.836 214.745 C 136.321 205.260, 139.411 196.713, 139.703 195.750 L 140.233 194 120.617 194 L 101 194 101 181.653 L 101 169.306 145.570 168.749 C 170.084 168.443, 190.289 168.037, 190.470 167.846 C 190.651 167.656, 191.306 160.750, 191.925 152.500 C 192.544 144.250, 193.306 135.363, 193.619 132.750 L 194.188 128 147.594 128 L 101 128 101 114.521 L 101 101.042 120.415 100.771 L 139.831 100.500 133.020 82.500 C 129.274 72.600, 125.951 63.712, 125.636 62.750 L 125.063 61 94.531 61 L 64 61 64 146.500 M 154.602 61.834 C 154.319 62.293, 157.773 71.018, 162.278 81.223 L 170.469 99.777 175.485 100.380 C 178.243 100.711, 194.787 100.987, 212.250 100.991 L 244 101 244 100.088 C 244 99.364, 233.465 70.267, 230.481 62.750 L 229.786 61 192.452 61 L 155.118 61 154.602 61.834 M 169.288 197.250 C 168.711 199.037, 165.741 207.588, 162.686 216.250 L 157.133 232 194.951 232 L 232.769 232 238.752 215.250 C 242.042 206.037, 245.050 197.488, 245.435 196.250 L 246.135 194 208.235 194 L 170.336 194 169.288 197.250" stroke="none" fill="#feffff" fill-rule="evenodd"/><path d="M -0 150.003 L -0 300.006 150.750 299.753 L 301.500 299.500 301.753 149.750 L 302.007 0 151.003 0 L 0 0 -0 150.003 M 0.487 150.500 C 0.487 233, 0.605 266.602, 0.750 225.172 C 0.894 183.741, 0.894 116.241, 0.750 75.172 C 0.605 34.102, 0.487 68, 0.487 150.500 M 20.535 21.799 C 20.241 22.093, 20 80.308, 20 151.167 L 20 280 151.500 280 L 283 280 283.084 259.250 C 283.450 168.968, 283.556 23.290, 283.256 22.383 L 282.888 21.265 151.978 21.265 C 79.978 21.264, 20.829 21.505, 20.535 21.799 M 172.250 100.689 C 173.213 100.941, 174.787 100.941, 175.750 100.689 L 177.500 100.232 174 100.232 L 170.500 100.232 172.250 100.689 M 173.789 168.741 C 177.248 168.937, 182.648 168.936, 185.789 168.738 L 191.500 168.378 179.500 168.382 L 167.500 168.385 173.789 168.741 M 101.232 172 L 101.232 175.500 101.689 173.750 C 101.941 172.787, 101.941 171.213, 101.689 170.250 L 101.232 168.500 101.232 172 M 101.343 186.500 L 101.349 194.500 101.733 190.224 C 101.945 187.872, 101.942 184.272, 101.727 182.224 L 101.336 178.500 101.343 186.500" stroke="none" fill="#8ac72f" fill-rule="evenodd"/></svg>